<svg xmlns="http://www.w3.org/2000/svg" width="24" height="24" viewBox="0 0 24 24">
  <path fill="#F3BA2F" d="M12 0C5.373 0 0 5.373 0 12s5.373 12 12 12 12-5.373 12-12S18.627 0 12 0z"/>
  <path fill="#FFF" d="M12 4.95l4.25 4.25-1.416 1.416L12 7.784 9.166 10.62 7.75 9.202 12 4.95zM7.783 12l-1.417 1.416L7.784 12l-1.418-1.416L7.783 12zm2.8-2.8L12 7.782l1.418 1.417L12 10.615 10.583 9.2zM12 16.216l-4.25-4.25 1.416-1.416L12 13.384l2.834-2.834 1.416 1.416-4.25 4.25z"/>
  <path fill="#FFF" d="M14.201 12.001l1.416 1.416-1.416 1.416-1.416-1.416 1.416-1.416z"/>
</svg> 